<?xml version="1.0" standalone="no"?>
<!DOCTYPE svg PUBLIC "-//W3C//DTD SVG 20010904//EN"
 "http://www.w3.org/TR/2001/REC-SVG-20010904/DTD/svg10.dtd">
<svg version="1.0" xmlns="http://www.w3.org/2000/svg"
 width="192.000000pt" height="192.000000pt" viewBox="0 0 192.000000 192.000000"
 preserveAspectRatio="xMidYMid meet">
<metadata>
Created by potrace 1.10, written by Peter Selinger 2001-2011
</metadata>
<g transform="translate(0.000000,192.000000) scale(0.100000,-0.100000)"
fill="#000000" stroke="none">
<path d="M1723 1278 c107 -212 134 -295 117 -361 -15 -59 -56 -154 -116 -274
l-51 -103 36 0 36 0 64 131 c75 156 102 230 94 260 -5 17 -11 9 -28 -42 -28
-82 -65 -162 -72 -156 -3 3 10 43 29 89 44 111 44 165 0 276 -19 46 -32 86
-29 89 9 8 69 -132 82 -192 6 -26 8 -27 16 -12 14 24 -9 90 -89 260 l-65 137
-38 0 -37 0 51 -102z m43 5 c16 -37 31 -71 32 -75 2 -4 -1 -8 -6 -8 -6 0 -16
17 -23 38 -7 20 -20 52 -31 70 -20 37 -22 42 -10 42 5 0 22 -30 38 -67z m1
-643 c-17 -39 -35 -70 -40 -70 -5 0 -7 4 -5 8 33 80 63 140 69 136 4 -2 -7
-36 -24 -74z"/>
<path d="M93 1120 c-65 -33 -98 -103 -72 -151 7 -14 7 -29 -2 -54 -11 -29 -10
-40 5 -73 28 -61 67 -84 152 -90 60 -4 79 -1 115 17 l44 22 -1 81 -1 81 -66 1
c-63 1 -67 0 -67 -21 0 -20 5 -23 43 -23 l44 0 -2 -52 c-2 -60 -11 -66 -90
-67 -68 -1 -108 24 -130 83 -22 57 -15 134 15 176 39 54 150 66 211 21 36 -27
39 -26 37 5 -4 39 -39 56 -121 61 -59 4 -79 0 -114 -17z"/>
<path d="M430 945 l0 -195 120 0 120 0 0 26 0 26 -96 -3 -96 -3 2 172 1 172
-26 0 -25 0 0 -195z"/>
<path d="M720 943 l0 -193 25 0 c25 0 25 0 25 96 l0 97 75 -5 c74 -5 75 -5 75
19 0 24 -1 25 -75 21 l-75 -3 0 60 0 60 85 -3 c83 -3 85 -3 85 20 0 23 -2 23
-110 23 l-110 0 0 -192z m33 6 c-9 -9 -12 -7 -10 9 1 14 5 18 11 12 7 -7 6
-14 -1 -21z"/>
<path d="M1017 1013 c18 -70 39 -157 46 -193 13 -65 13 -65 49 -68 35 -3 35
-2 42 40 4 24 13 63 21 88 8 25 21 82 29 128 8 46 16 86 19 88 3 3 8 -14 12
-38 4 -24 22 -101 39 -173 32 -128 33 -130 62 -133 28 -3 31 0 47 55 22 80 77
306 77 321 0 6 -10 12 -22 12 -21 0 -26 -12 -55 -133 -18 -72 -33 -147 -33
-165 0 -36 -17 -43 -24 -9 -30 141 -65 287 -71 297 -3 5 -17 8 -32 7 -29 -3
-29 -2 -78 -217 -13 -58 -24 -107 -25 -110 -1 -3 -8 20 -16 50 -7 30 -22 91
-33 135 -34 137 -35 140 -63 143 l-25 3 34 -128z m330 -219 c-3 -3 -12 -4 -19
-1 -8 3 -5 6 6 6 11 1 17 -2 13 -5z"/>
</g>
</svg>
